# xmcd CD database file
#
# Track frame offsets:
#	150
#	12765
#	22482
#	34513
#	42753
#	53253
#	63221
#	71850
#	86390
#	95055
#	103357
#	116738
#	125271
#	145531
#	159205
#	171670
#
# Disc length: 2426 seconds
#
# Revision: 0
# Processed by: cddbd v1.5.1PL2 Copyright (c) Steve Scherf et al.
# Submitted via: CDex 1.51
#
DISCID=d3097810
DTITLE=VCD Pardubice - Mississippi Blues Ben
DYEAR=2006
DGENRE=Blues
TTITLE0=Narozeni
TTITLE1=Americkej bourak
TTITLE2=Ptackove v kleci
TTITLE3=Rozchod
TTITLE4=V dobry spolecnosti
TTITLE5=Hraci
TTITLE6=Mam blues
TTITLE7=Brejle
TTITLE8=Smrt Benovy matky
TTITLE9=Bliz, Bohu bliz
TTITLE10=Svoboda
TTITLE11=Blues s nami je tu
TTITLE12=Divna zenska
TTITLE13=Nas den
TTITLE14=Spady
TTITLE15=Aligator blues - Po rece pluje blues
EXTD=YEAR: 2006
EXTT0=
EXTT1=
EXTT2=
EXTT3=
EXTT4=
EXTT5=
EXTT6=
EXTT7=
EXTT8=
EXTT9=
EXTT10=
EXTT11=
EXTT12=
EXTT13=
EXTT14=
EXTT15=
PLAYORDER=
